name Walk3.mot
datacolumns 19
datarows 30
range 2.65400000 2.68300000
endheader

                time	   L_ground_force_vx	   L_ground_force_vy	   L_ground_force_vz	   L_ground_force_px	   L_ground_force_py	   L_ground_force_pz	   R_ground_force_vx	   R_ground_force_vy	   R_ground_force_vz	   R_ground_force_px	   R_ground_force_py	   R_ground_force_pz	   L_ground_torque_x	   L_ground_torque_y	   L_ground_torque_z	   R_ground_torque_x	   R_ground_torque_y	   R_ground_torque_z	
          2.65400000	          0.83016347	          2.35488697	         -1.63331319	          0.22822265	          0.00000000	          0.07341381	         -0.10060381	        -19.04901715	          0.00969844	         -0.14370676	          0.00000000	          0.22666302	          0.00000000	         -0.05453832	          0.00000000	          0.00000000	          0.00173219	          0.00000000	
          2.65500000	          0.13168180	          0.74963505	         -1.52362473	          0.21602759	          0.00000000	          0.06939606	         -0.10049381	        -19.05945540	          0.00924164	         -0.14369230	          0.00000000	          0.22653231	          0.00000000	         -0.04769093	          0.00000000	          0.00000000	          0.00190605	          0.00000000	
          2.65600000	         -0.50790964	         -0.72196436	         -1.41750502	          0.20405309	          0.00000000	          0.06545770	         -0.10037831	        -19.06972009	          0.00878116	         -0.14367839	          0.00000000	          0.22639878	          0.00000000	         -0.04124552	          0.00000000	          0.00000000	          0.00207890	          0.00000000	
          2.65700000	         -1.09120108	         -2.06571412	         -1.31505162	          0.19232564	          0.00000000	          0.06160684	         -0.10025946	        -19.07976928	          0.00831978	         -0.14366513	          0.00000000	          0.22626317	          0.00000000	         -0.03519227	          0.00000000	          0.00000000	          0.00225100	          0.00000000	
          2.65800000	         -1.62077526	         -3.28740683	         -1.21633997	          0.18086855	          0.00000000	          0.05785059	         -0.10014023	        -19.08960836	          0.00785825	         -0.14365264	          0.00000000	          0.22612605	          0.00000000	         -0.02952070	          0.00000000	          0.00000000	          0.00242260	          0.00000000	
          2.65900000	         -2.09919831	         -4.39280379	         -1.12142492	          0.16970213	          0.00000000	          0.05419512	         -0.10002439	        -19.09929040	          0.00739529	         -0.14364103	          0.00000000	          0.22598784	          0.00000000	         -0.02421981	          0.00000000	          0.00000000	          0.00259394	          0.00000000	
          2.66000000	         -2.52901145	         -5.38761592	         -1.03034235	          0.15884387	          0.00000000	          0.05064566	         -0.09991656	        -19.10891676	          0.00692758	         -0.14363043	          0.00000000	          0.22584875	          0.00000000	         -0.01927810	          0.00000000	          0.00000000	          0.00276526	          0.00000000	
          2.66100000	         -2.91272354	         -6.27748642	         -0.94311057	          0.14830858	          0.00000000	          0.04720661	         -0.09982220	        -19.11863723	          0.00644974	         -0.14362098	          0.00000000	          0.22570883	          0.00000000	         -0.01468370	          0.00000000	          0.00000000	          0.00293680	          0.00000000	
          2.66200000	         -3.25280433	         -7.06797527	         -0.85973180	          0.13810862	          0.00000000	          0.04388157	         -0.09974760	        -19.12864864	          0.00595438	         -0.14361282	          0.00000000	          0.22556795	          0.00000000	         -0.01042446	          0.00000000	          0.00000000	          0.00310877	          0.00000000	
          2.66300000	         -3.55167844	         -7.76454523	         -0.78019352	          0.12825403	          0.00000000	          0.04067343	         -0.09969966	        -19.13919053	          0.00543236	         -0.14360608	          0.00000000	          0.22542584	          0.00000000	         -0.00648796	          0.00000000	          0.00000000	          0.00328133	          0.00000000	
          2.66400000	         -3.81172006	         -8.37254950	         -0.70446974	          0.11875267	          0.00000000	          0.03758437	         -0.09968566	        -19.15053640	          0.00487313	         -0.14360091	          0.00000000	          0.22528208	          0.00000000	         -0.00286164	          0.00000000	          0.00000000	          0.00345455	          0.00000000	
          2.66500000	         -4.03524826	         -8.89722080	         -0.63252229	          0.10961042	          0.00000000	          0.03461592	         -0.09971276	        -19.16298005	          0.00426547	         -0.14359742	          0.00000000	          0.22513619	          0.00000000	          0.00046717	          0.00000000	          0.00000000	          0.00362837	          0.00000000	
          2.66600000	         -4.22452290	         -9.34366183	         -0.56430195	          0.10083129	          0.00000000	          0.03176906	         -0.09978750	        -19.17681854	          0.00359819	         -0.14359571	          0.00000000	          0.22498765	          0.00000000	          0.00351118	          0.00000000	          0.00000000	          0.00380247	          0.00000000	
          2.66700000	         -4.38174112	         -9.71683706	         -0.49974963	          0.09241758	          0.00000000	          0.02904421	         -0.09991525	        -19.19233639	          0.00286092	         -0.14359582	          0.00000000	          0.22483597	          0.00000000	          0.00628311	          0.00000000	          0.00000000	          0.00397625	          0.00000000	
          2.66800000	         -4.50903442	        -10.02156571	         -0.43879737	          0.08437001	          0.00000000	          0.02644128	         -0.10010005	        -19.20979596	          0.00204444	         -0.14359774	          0.00000000	          0.22468075	          0.00000000	          0.00879562	          0.00000000	          0.00000000	          0.00414881	          0.00000000	
          2.66900000	         -4.60846612	        -10.26251590	         -0.38136942	          0.07668787	          0.00000000	          0.02395974	         -0.10034471	        -19.22943561	          0.00114068	         -0.14360142	          0.00000000	          0.22452162	          0.00000000	          0.01106126	          0.00000000	          0.00000000	          0.00431896	          0.00000000	
          2.67000000	         -4.68202941	        -10.44419983	         -0.32738313	          0.06936911	          0.00000000	          0.02159866	         -0.10065116	        -19.25147198	          0.00014242	         -0.14360678	          0.00000000	          0.22435825	          0.00000000	          0.01309247	          0.00000000	          0.00000000	          0.00448537	          0.00000000	
          2.67100000	         -4.73164573	        -10.57097004	         -0.27674987	          0.06241049	          0.00000000	          0.01935672	         -0.10102082	        -19.27610076	         -0.00095705	         -0.14361373	          0.00000000	          0.22419034	          0.00000000	          0.01490151	          0.00000000	          0.00000000	          0.00464662	          0.00000000	
          2.67200000	         -4.75916368	        -10.64701649	         -0.22937588	          0.05580769	          0.00000000	          0.01723224	         -0.10145474	        -19.30349415	         -0.00216407	         -0.14362216	          0.00000000	          0.22401757	          0.00000000	          0.01650043	          0.00000000	          0.00000000	          0.00480127	          0.00000000	
          2.67300000	         -4.76635817	        -10.67636455	         -0.18516307	          0.04955540	          0.00000000	          0.01522329	         -0.10195365	        -19.33379650	         -0.00348470	         -0.14363201	          0.00000000	          0.22383963	          0.00000000	          0.01790105	          0.00000000	          0.00000000	          0.00494780	          0.00000000	
          2.67400000	         -4.75492999	        -10.66287381	         -0.14400974	          0.04364744	          0.00000000	          0.01332761	         -0.10251767	        -19.36711954	         -0.00492459	         -0.14364319	          0.00000000	          0.22365617	          0.00000000	          0.01911494	          0.00000000	          0.00000000	          0.00508460	          0.00000000	
          2.67500000	         -4.72650571	        -10.61023760	         -0.10581125	          0.03807688	          0.00000000	          0.01154276	         -0.10314601	        -19.40353517	         -0.00648875	         -0.14365564	          0.00000000	          0.22346691	          0.00000000	          0.02015338	          0.00000000	          0.00000000	          0.00520977	          0.00000000	
          2.67600000	         -4.68263781	        -10.52198311	         -0.07046071	          0.03283606	          0.00000000	          0.00986604	         -0.10383661	        -19.44306384	         -0.00818086	         -0.14366930	          0.00000000	          0.22327159	          0.00000000	          0.02102738	          0.00000000	          0.00000000	          0.00532119	          0.00000000	
          2.67700000	         -4.62480515	        -10.40147227	         -0.03784958	          0.02791676	          0.00000000	          0.00829460	         -0.10458586	        -19.48565862	         -0.01000234	         -0.14368408	          0.00000000	          0.22307011	          0.00000000	          0.02174761	          0.00000000	          0.00000000	          0.00541653	          0.00000000	
          2.67800000	         -4.55441360	        -10.25190301	         -0.00786815	          0.02331022	          0.00000000	          0.00682543	         -0.10538865	        -19.53118826	         -0.01195111	         -0.14369993	          0.00000000	          0.22286257	          0.00000000	          0.02232443	          0.00000000	          0.00000000	          0.00549361	          0.00000000	
          2.67900000	         -4.47279696	        -10.07631120	          0.01959386	          0.01900727	          0.00000000	          0.00545538	         -0.10623857	        -19.57942384	         -0.01402050	         -0.14371678	          0.00000000	          0.22264937	          0.00000000	          0.02276784	          0.00000000	          0.00000000	          0.00555070	          0.00000000	
          2.68000000	         -4.38121805	         -9.87757290	          0.04464690	          0.01499835	          0.00000000	          0.00418120	         -0.10712822	        -19.63003559	         -0.01619877	         -0.14373454	          0.00000000	          0.22243126	          0.00000000	          0.02308752	          0.00000000	          0.00000000	          0.00558689	          0.00000000	
          2.68100000	         -4.28086995	         -9.65840710	          0.06740111	          0.01127361	          0.00000000	          0.00299956	         -0.10804961	        -19.68260507	         -0.01846948	         -0.14375316	          0.00000000	          0.22220931	          0.00000000	          0.02329277	          0.00000000	          0.00000000	          0.00560215	          0.00000000	
          2.68200000	         -4.17287746	         -9.42137883	          0.08796598	          0.00782297	          0.00000000	          0.00190706	         -0.10899455	        -19.73665168	         -0.02081274	         -0.14377258	          0.00000000	          0.22198478	          0.00000000	          0.02339256	          0.00000000	          0.00000000	          0.00559733	          0.00000000	
          2.68300000	         -4.05829861	         -9.16890248	          0.10644992	          0.00463615	          0.00000000	          0.00090023	         -0.10995499	        -19.79166575	         -0.02320685	         -0.14379275	          0.00000000	          0.22175903	          0.00000000	          0.02339546	          0.00000000	          0.00000000	          0.00557384	          0.00000000	
